<svg width="116" height="107" viewBox="0 0 116 107" fill="none" xmlns="http://www.w3.org/2000/svg"><mask id="a" style="mask-type:alpha" maskUnits="userSpaceOnUse" x="0" y="-1" width="116" height="109"><path d="M92.204 0c17.87 12.846 42.268 46.654-3.105 79.123C74.195 89.577 64.673 86.297 57.429 107c-6.004-6.354-6.625-21.728 21.32-45.916C92.618 49.81 93.376 33.548 92.204 30.747c-2.07 5.535-8.322 18.08-16.767 23.983-10.557 7.38-15.732 14.759-15.11 17.013.62 2.255-18.01-17.833-1.45-37.921S88.477 22.342 92.204 0Z" fill="#fff" stroke="#fff"/><path d="M15.36 103.328V19.36H0V2h32.768v101.328z" fill="#fff"/></mask><g mask="url(#a)"><path fill="url(#b)" d="M0 0h116v107H0z"/></g><defs><linearGradient id="b" x1="107.349" y1="0" x2="124.922" y2="82.12" gradientUnits="userSpaceOnUse"><stop stop-color="#fff"/><stop offset="1" stop-color="#6946B3"/></linearGradient></defs></svg>